<svg xmlns="http://www.w3.org/2000/svg" width="100%" height="100%" viewBox="0 0 303 43" xml:space="preserve" fill="#C32059">
<g transform="matrix(1.23681,0,0,1.23681,-705.182,-37.0084)">
<g transform="matrix(1,0,0,1,685.241,62.8108)">
    <path d="M0,-29.14L2.929,-29.14L2.929,-2.81L14.129,-2.81L14.129,0L0,0L0,-29.14Z"/>
</g>
<g transform="matrix(1,0,0,1,713.693,60.1197)">
    <path d="M0,-17.214C-2.292,-17.214 -4.263,-16.363 -5.914,-14.659C-7.565,-12.957 -8.39,-10.9 -8.39,-8.489C-8.39,-6.931 -7.968,-5.431 -7.123,-3.99C-6.278,-2.549 -4.847,-1.331 -2.829,-0.335C2.228,0.791 5.823,-1.507 7.958,-7.232C8.076,-9.066 7.88,-10.821 7.369,-12.498C7.002,-13.258 6.497,-13.978 5.856,-14.659C4.245,-16.363 2.293,-17.214 0,-17.214M0,-19.925C3.315,-19.925 6.065,-18.727 8.253,-16.33C10.27,-14.142 11.279,-11.543 11.279,-8.529C11.306,-1.088 11.306,2.573 11.279,2.691L8.351,2.691L8.351,-2.084C6.818,0.771 4.035,2.369 0,2.711C-3.301,2.711 -5.995,1.587 -8.084,-0.66C-10.175,-2.906 -11.22,-5.528 -11.22,-8.529C-11.22,-11.515 -10.23,-14.11 -8.251,-16.31C-6.064,-18.72 -3.314,-19.925 0,-19.925"/>
</g>
<g transform="matrix(1,0,0,1,738.982,34.5229)">
    <path d="M0,27.541C-1.441,28.091 -2.725,28.346 -3.852,28.307C-5.974,28.189 -7.649,27.089 -8.881,25.006C-9.628,23.697 -9.988,22.255 -9.963,20.683L-9.964,-0.805L-7.172,-0.805L-7.172,6.711L-2.043,6.711L-2.043,9.088L-7.153,9.088L-7.153,20.212C-7.23,22.465 -6.471,24.2 -4.873,25.419C-3.563,26.034 -2.228,25.976 -0.865,25.242C-0.511,26.224 -0.224,26.991 0,27.541"/>
</g>
<g transform="matrix(1,0,0,1,744.366,38.2962)">
    <path d="M0,-4.578C0.629,-4.578 1.169,-4.356 1.622,-3.911C2.072,-3.465 2.299,-2.928 2.299,-2.299C2.299,-1.67 2.072,-1.13 1.622,-0.678C1.169,-0.226 0.629,0 0,0C-0.628,0 -1.167,-0.226 -1.611,-0.678C-2.057,-1.13 -2.28,-1.67 -2.28,-2.299C-2.28,-2.928 -2.057,-3.465 -1.611,-3.911C-1.167,-4.356 -0.628,-4.578 0,-4.578"/>
</g>
<g transform="matrix(1,0,0,1,0,-491.211)">
    <rect x="742.991" y="532.466" width="2.771" height="21.555"/>
</g>
<g transform="matrix(1,0,0,1,751.48,48.8393)">
    <path d="M0,5.251L-0.04,2.952C-0.079,1.825 -0.034,0.869 0.097,0.083C0.385,-2.393 1.014,-4.207 1.983,-5.36C2.927,-6.369 3.889,-7.148 4.872,-7.698C6.497,-8.393 8.35,-8.72 10.434,-8.68C12.057,-8.68 13.561,-8.27 14.942,-7.453C16.324,-6.634 17.31,-5.534 17.899,-4.151C18.489,-2.77 18.784,-0.604 18.784,2.342L18.757,13.971L16.007,13.971L16.033,3.148C16.033,0.659 15.928,-1.004 15.719,-1.843C15.391,-3.27 14.742,-4.283 13.774,-4.878C12.803,-5.474 11.37,-5.773 9.47,-5.773C7.794,-5.773 6.299,-5.287 4.99,-4.319C3.68,-3.349 3.071,-2.026 3.163,-0.35C2.914,0.726 2.79,2.684 2.79,5.526L2.763,13.971L-0.027,13.971L0,5.251Z"/>
</g>
<g transform="matrix(1,0,0,1,786.356,60.1197)">
    <path d="M0,-17.214C-2.293,-17.214 -4.264,-16.363 -5.915,-14.659C-7.565,-12.957 -8.39,-10.9 -8.39,-8.489C-8.39,-6.931 -8.014,-5.474 -7.26,-4.118C-6.507,-2.761 -5.488,-1.72 -4.205,-0.993C-2.92,-0.267 -1.519,0.097 0,0.097C1.546,0.097 2.958,-0.267 4.234,-0.993C5.513,-1.72 6.523,-2.761 7.27,-4.118C8.017,-5.474 8.39,-6.931 8.39,-8.489C8.39,-10.9 7.566,-12.957 5.915,-14.659C4.265,-16.363 2.293,-17.214 0,-17.214M0,-19.925C3.314,-19.925 6.065,-18.727 8.253,-16.33C10.23,-14.129 11.22,-11.529 11.22,-8.529C11.22,-5.528 10.172,-2.906 8.076,-0.66C5.98,1.587 3.288,2.711 0,2.711C-3.301,2.711 -5.996,1.587 -8.085,-0.66C-10.175,-2.906 -11.219,-5.528 -11.219,-8.529C-11.219,-11.515 -10.23,-14.11 -8.253,-16.31C-6.064,-18.72 -3.315,-19.925 0,-19.925"/>
</g>
<g transform="matrix(1,0,0,1,813.513,59.9215)">
    <path d="M0,-16.819L-1.77,-14.972C-3.264,-16.413 -4.71,-17.133 -6.112,-17.133C-7.016,-17.133 -7.789,-16.839 -8.431,-16.249C-9.071,-15.66 -9.394,-14.959 -9.394,-14.147C-9.394,-13.466 -9.125,-12.811 -8.587,-12.182C-8.063,-11.514 -6.957,-10.747 -5.266,-9.883C-3.197,-8.822 -1.796,-7.794 -1.062,-6.797C-0.342,-5.789 0.019,-4.656 0.019,-3.398C0.019,-1.643 -0.601,-0.153 -1.839,1.071C-3.076,2.296 -4.625,2.909 -6.486,2.909C-7.731,2.909 -8.919,2.643 -10.052,2.113C-11.186,1.582 -12.118,0.839 -12.852,-0.118L-11.104,-2.102C-9.689,-0.505 -8.189,0.295 -6.604,0.295C-5.503,0.295 -4.564,-0.062 -3.784,-0.776C-3.004,-1.489 -2.614,-2.325 -2.614,-3.28C-2.614,-4.08 -2.87,-4.788 -3.381,-5.403C-3.892,-6.019 -5.051,-6.792 -6.859,-7.722C-8.811,-8.704 -10.133,-9.693 -10.828,-10.689C-11.535,-11.658 -11.889,-12.771 -11.889,-14.029C-11.889,-15.666 -11.329,-17.025 -10.208,-18.106C-9.09,-19.187 -7.685,-19.728 -5.995,-19.728C-4.016,-19.728 -2.018,-18.757 0,-16.819"/>
</g>
<g transform="matrix(1,0,0,1,0,-496.484)">
    <path d="M599.348,538.905L600.395,538.905L600.395,559.293L599.348,559.293L599.348,538.905ZM599.872,534.801C599.576,534.801 599.309,534.68 599.067,534.439C598.826,534.197 598.704,533.929 598.704,533.633C598.704,533.339 598.826,533.07 599.067,532.829C599.309,532.588 599.576,532.467 599.872,532.467C600.166,532.467 600.435,532.588 600.677,532.829C600.918,533.07 601.039,533.339 601.039,533.633C601.039,533.929 600.918,534.197 600.677,534.439C600.435,534.68 600.166,534.801 599.872,534.801"/>
</g>
<g transform="matrix(1,0,0,1,614.986,61.6931)">
    <path d="M0,-18.677C-0.291,-18.728 -1.096,-18.803 -2.082,-18.838C-3.132,-18.873 -4.455,-18.37 -5.69,-17.334C-6.718,-16.473 -7.324,-15.852 -8.09,-14.183C-8.305,-13.715 -8.796,-12.572 -8.796,-11.626L-8.796,1.117L-9.843,1.117L-9.843,-11.626C-9.843,-12.705 -8.955,-14.884 -8.266,-15.97C-7.651,-16.939 -6.463,-18.153 -5.15,-18.878C-3.841,-19.6 -2.961,-19.794 -1.754,-19.794C-0.925,-19.794 -0.149,-19.664 0.573,-19.506L0,-18.677Z"/>
</g>
<g transform="matrix(1,0,0,1,628.266,34.3113)">
    <path d="M0,27.901C0,27.901 -1.309,28.436 -2.419,28.469C-3.265,28.494 -4.387,28.34 -5.299,27.995C-6.211,27.649 -7.002,27.138 -7.673,26.462C-8.344,25.786 -8.861,24.936 -9.223,23.913C-9.585,22.892 -9.765,21.704 -9.765,20.351L-9.767,-0.593L-8.721,-0.593L-8.72,7.614L-4.701,7.614L-4.701,8.608L-8.72,8.608L-8.72,21.281C-8.72,22.712 -8.136,24.489 -6.969,25.684C-5.867,26.814 -4.4,27.471 -2.566,27.471C-1.379,27.471 -0.341,26.928 -0.341,26.928L0,27.901Z"/>
</g>
<g transform="matrix(1,0,0,1,647.531,62.8243)">
    <path d="M0,-20.403L0.907,-20.403L0.907,-9.98C0.907,-8.344 0.703,-6.902 0.296,-5.654C-0.11,-4.406 -0.686,-3.367 -1.43,-2.536C-2.174,-1.703 -3.069,-1.073 -4.115,-0.644C-5.162,-0.216 -6.324,0 -7.603,0C-8.882,0 -10.044,-0.216 -11.09,-0.644C-12.136,-1.073 -13.032,-1.703 -13.776,-2.536C-14.519,-3.367 -15.096,-4.406 -15.502,-5.654C-15.909,-6.902 -16.112,-8.344 -16.112,-9.98L-16.112,-20.403L-15.206,-20.403L-15.206,-9.98C-15.206,-8.532 -15.026,-7.25 -14.665,-6.137C-14.305,-5.024 -13.793,-4.085 -13.13,-3.32C-12.468,-2.556 -11.671,-1.972 -10.742,-1.57C-9.812,-1.167 -8.766,-0.966 -7.603,-0.966C-6.464,-0.966 -5.423,-1.167 -4.481,-1.57C-3.54,-1.972 -2.738,-2.556 -2.075,-3.32C-1.412,-4.085 -0.901,-5.024 -0.541,-6.137C-0.18,-7.25 0,-8.532 0,-9.98L0,-20.403Z"/>
</g>
<g transform="matrix(1,0,0,1,662.812,42.8653)">
    <path d="M0,18.993C1.449,18.993 2.763,18.752 3.943,18.268C5.124,17.786 6.137,17.122 6.981,16.277C7.828,15.431 8.478,14.432 8.934,13.279C9.389,12.125 9.618,10.864 9.618,9.496C9.618,8.127 9.389,6.867 8.934,5.714C8.478,4.56 7.828,3.561 6.981,2.716C6.137,1.869 5.124,1.207 3.943,0.722C2.763,0.24 1.449,-0.001 0,-0.001C-1.449,-0.001 -2.763,0.24 -3.943,0.722C-5.125,1.207 -6.137,1.869 -6.982,2.716C-7.827,3.561 -8.478,4.56 -8.934,5.714C-9.39,6.867 -9.618,8.127 -9.618,9.496C-9.618,10.864 -9.39,12.125 -8.934,13.279C-8.478,14.432 -7.827,15.431 -6.982,16.277C-6.137,17.122 -5.125,17.786 -3.943,18.268C-2.763,18.752 -1.449,18.993 0,18.993M10.664,19.945L9.658,19.945L9.658,14.003L9.578,14.003C8.799,15.828 7.572,17.276 5.896,18.349C4.218,19.422 2.239,19.959 -0.041,19.959C-1.597,19.959 -3.025,19.697 -4.326,19.175C-5.627,18.651 -6.754,17.927 -7.706,17.001C-8.659,16.076 -9.396,14.969 -9.918,13.681C-10.442,12.394 -10.704,10.999 -10.704,9.496C-10.704,7.993 -10.442,6.599 -9.918,5.311C-9.396,4.022 -8.659,2.916 -7.706,1.991C-6.754,1.066 -5.627,0.341 -4.326,-0.182C-3.025,-0.705 -1.583,-0.966 0,-0.966C1.556,-0.966 2.991,-0.705 4.305,-0.182C5.619,0.341 6.747,1.066 7.687,1.991C8.625,2.916 9.356,4.03 9.879,5.331C10.402,6.632 10.664,8.047 10.664,9.576L10.664,19.945Z"/>
</g>
<g transform="matrix(1,0,0,1,0,-498.735)">
    <rect x="678.225" y="532.465" width="1.046" height="29.081"/>
</g>
<g transform="matrix(1,0,0,1,580.329,29.9225)">
    <path d="M0,32.888L-9.357,16.094L-8.043,16.092L0.603,31.519L0.684,31.519L18.081,0L19.288,0L1.247,32.888L0,32.888Z"/>
</g>    </g></svg>